# xmcd
#
# Track frame offsets:
# 150
# 15990
# 30110
# 51042
# 67004
#
# Disc length: 1114 seconds
#
#
# Revision: 0
# Processed by: cddbd v1.4PL0 Copyright (c) Steve Scherf et al.
# Submitted via: FreeRIP 2.40 
#
DISCID=2f045805
DTITLE=Little Women Band - The Little Women Band
DYEAR=1900
DGENRE=Contemporary Christian
TTITLE0=Limbo Life
TTITLE1=You Could Be The One For Me
TTITLE2=Thieves Of Love
TTITLE3=You'll Be Mine
TTITLE4=Follow You
EXTD=
EXTT0=
EXTT1=
EXTT2=
EXTT3=
EXTT4=
PLAYORDER=
